<svg id="visual" viewBox="0 0 900 600" width="900" height="600" xmlns="http://www.w3.org/2000/svg" xmlns:xlink="http://www.w3.org/1999/xlink" version="1.1"><rect x="0" y="0" width="900" height="600" fill="#002233"></rect><path d="M0 523L21.5 502.8C43 482.7 86 442.3 128.8 442.3C171.7 442.3 214.3 482.7 257.2 493.7C300 504.7 343 486.3 385.8 473.3C428.7 460.3 471.3 452.7 514.2 439.8C557 427 600 409 642.8 405.3C685.7 401.7 728.3 412.3 771.2 431C814 449.7 857 476.3 878.5 489.7L900 503L900 601L878.5 601C857 601 814 601 771.2 601C728.3 601 685.7 601 642.8 601C600 601 557 601 514.2 601C471.3 601 428.7 601 385.8 601C343 601 300 601 257.2 601C214.3 601 171.7 601 128.8 601C86 601 43 601 21.5 601L0 601Z" fill="#0066FF" stroke-linecap="round" stroke-linejoin="miter"></path></svg>