<svg id="visual" viewBox="0 0 900 600" width="900" height="600" xmlns="http://www.w3.org/2000/svg" xmlns:xlink="http://www.w3.org/1999/xlink" version="1.1"><path d="M0 67L13.7 76C27.3 85 54.7 103 82 101C109.3 99 136.7 77 163.8 82C191 87 218 119 245.2 120C272.3 121 299.7 91 327 90C354.3 89 381.7 117 409 126C436.3 135 463.7 125 491 111C518.3 97 545.7 79 573 71C600.3 63 627.7 65 654.8 70C682 75 709 83 736.2 91C763.3 99 790.7 107 818 112C845.3 117 872.7 119 886.3 120L900 121L900 0L886.3 0C872.7 0 845.3 0 818 0C790.7 0 763.3 0 736.2 0C709 0 682 0 654.8 0C627.7 0 600.3 0 573 0C545.7 0 518.3 0 491 0C463.7 0 436.3 0 409 0C381.7 0 354.3 0 327 0C299.7 0 272.3 0 245.2 0C218 0 191 0 163.8 0C136.7 0 109.3 0 82 0C54.7 0 27.3 0 13.7 0L0 0Z" fill="#6198ff"></path><path d="M0 289L13.7 291C27.3 293 54.7 297 82 279C109.3 261 136.7 221 163.8 212C191 203 218 225 245.2 250C272.3 275 299.7 303 327 326C354.3 349 381.7 367 409 369C436.3 371 463.7 357 491 341C518.3 325 545.7 307 573 283C600.3 259 627.7 229 654.8 230C682 231 709 263 736.2 266C763.3 269 790.7 243 818 241C845.3 239 872.7 261 886.3 272L900 283L900 119L886.3 118C872.7 117 845.3 115 818 110C790.7 105 763.3 97 736.2 89C709 81 682 73 654.8 68C627.7 63 600.3 61 573 69C545.7 77 518.3 95 491 109C463.7 123 436.3 133 409 124C381.7 115 354.3 87 327 88C299.7 89 272.3 119 245.2 118C218 117 191 85 163.8 80C136.7 75 109.3 97 82 99C54.7 101 27.3 83 13.7 74L0 65Z" fill="#3c80ff"></path><path d="M0 433L13.7 440C27.3 447 54.7 461 82 456C109.3 451 136.7 427 163.8 426C191 425 218 447 245.2 459C272.3 471 299.7 473 327 474C354.3 475 381.7 475 409 471C436.3 467 463.7 459 491 447C518.3 435 545.7 419 573 409C600.3 399 627.7 395 654.8 404C682 413 709 435 736.2 440C763.3 445 790.7 433 818 432C845.3 431 872.7 441 886.3 446L900 451L900 281L886.3 270C872.7 259 845.3 237 818 239C790.7 241 763.3 267 736.2 264C709 261 682 229 654.8 228C627.7 227 600.3 257 573 281C545.7 305 518.3 323 491 339C463.7 355 436.3 369 409 367C381.7 365 354.3 347 327 324C299.7 301 272.3 273 245.2 248C218 223 191 201 163.8 210C136.7 219 109.3 259 82 277C54.7 295 27.3 291 13.7 289L0 287Z" fill="#0066ff"></path><path d="M0 565L13.7 564C27.3 563 54.7 561 82 553C109.3 545 136.7 531 163.8 523C191 515 218 513 245.2 515C272.3 517 299.7 523 327 524C354.3 525 381.7 521 409 524C436.3 527 463.7 537 491 536C518.3 535 545.7 523 573 516C600.3 509 627.7 507 654.8 508C682 509 709 513 736.2 515C763.3 517 790.7 517 818 521C845.3 525 872.7 533 886.3 537L900 541L900 449L886.3 444C872.7 439 845.3 429 818 430C790.7 431 763.3 443 736.2 438C709 433 682 411 654.8 402C627.7 393 600.3 397 573 407C545.7 417 518.3 433 491 445C463.7 457 436.3 465 409 469C381.7 473 354.3 473 327 472C299.7 471 272.3 469 245.2 457C218 445 191 423 163.8 424C136.7 425 109.3 449 82 454C54.7 459 27.3 445 13.7 438L0 431Z" fill="#0059dd"></path><path d="M0 601L13.7 601C27.3 601 54.7 601 82 601C109.3 601 136.7 601 163.8 601C191 601 218 601 245.2 601C272.3 601 299.7 601 327 601C354.3 601 381.7 601 409 601C436.3 601 463.7 601 491 601C518.3 601 545.7 601 573 601C600.3 601 627.7 601 654.8 601C682 601 709 601 736.2 601C763.3 601 790.7 601 818 601C845.3 601 872.7 601 886.3 601L900 601L900 539L886.3 535C872.7 531 845.3 523 818 519C790.7 515 763.3 515 736.2 513C709 511 682 507 654.8 506C627.7 505 600.3 507 573 514C545.7 521 518.3 533 491 534C463.7 535 436.3 525 409 522C381.7 519 354.3 523 327 522C299.7 521 272.3 515 245.2 513C218 511 191 513 163.8 521C136.7 529 109.3 543 82 551C54.7 559 27.3 561 13.7 562L0 563Z" fill="#004cbb"></path></svg>