<svg id="visual" viewBox="0 0 900 600" width="900" height="600" xmlns="http://www.w3.org/2000/svg" xmlns:xlink="http://www.w3.org/1999/xlink" version="1.1"><path d="M0 79L75 79L75 115L150 115L150 55L225 55L225 145L300 145L300 85L375 85L375 97L450 97L450 103L525 103L525 103L600 103L600 91L675 91L675 103L750 103L750 133L825 133L825 49L900 49L900 115L900 0L900 0L825 0L825 0L750 0L750 0L675 0L675 0L600 0L600 0L525 0L525 0L450 0L450 0L375 0L375 0L300 0L300 0L225 0L225 0L150 0L150 0L75 0L75 0L0 0Z" fill="#fa7268"></path><path d="M0 223L75 223L75 247L150 247L150 277L225 277L225 313L300 313L300 253L375 253L375 331L450 331L450 415L525 415L525 337L600 337L600 301L675 301L675 277L750 277L750 235L825 235L825 307L900 307L900 361L900 113L900 47L825 47L825 131L750 131L750 101L675 101L675 89L600 89L600 101L525 101L525 101L450 101L450 95L375 95L375 83L300 83L300 143L225 143L225 53L150 53L150 113L75 113L75 77L0 77Z" fill="#e45765"></path><path d="M0 463L75 463L75 451L150 451L150 547L225 547L225 535L300 535L300 553L375 553L375 523L450 523L450 511L525 511L525 463L600 463L600 565L675 565L675 541L750 541L750 487L825 487L825 469L900 469L900 463L900 359L900 305L825 305L825 233L750 233L750 275L675 275L675 299L600 299L600 335L525 335L525 413L450 413L450 329L375 329L375 251L300 251L300 311L225 311L225 275L150 275L150 245L75 245L75 221L0 221Z" fill="#cb3d62"></path><path d="M0 601L75 601L75 601L150 601L150 601L225 601L225 601L300 601L300 601L375 601L375 601L450 601L450 601L525 601L525 601L600 601L600 601L675 601L675 601L750 601L750 601L825 601L825 601L900 601L900 601L900 461L900 467L825 467L825 485L750 485L750 539L675 539L675 563L600 563L600 461L525 461L525 509L450 509L450 521L375 521L375 551L300 551L300 533L225 533L225 545L150 545L150 449L75 449L75 461L0 461Z" fill="#b0235f"></path></svg>