<svg id="visual" viewBox="0 0 900 600" width="900" height="600" xmlns="http://www.w3.org/2000/svg" xmlns:xlink="http://www.w3.org/1999/xlink" version="1.1"><path d="M0 37L82 73L164 91L245 61L327 49L409 61L491 73L573 85L655 79L736 55L818 103L900 91L900 0L818 0L736 0L655 0L573 0L491 0L409 0L327 0L245 0L164 0L82 0L0 0Z" fill="#00cc8e"></path><path d="M0 85L82 151L164 181L245 157L327 103L409 121L491 157L573 133L655 193L736 157L818 157L900 187L900 89L818 101L736 53L655 77L573 83L491 71L409 59L327 47L245 59L164 89L82 71L0 35Z" fill="#00b98a"></path><path d="M0 361L82 337L164 379L245 349L327 361L409 343L491 319L573 295L655 301L736 367L818 295L900 355L900 185L818 155L736 155L655 191L573 131L491 155L409 119L327 101L245 155L164 179L82 149L0 83Z" fill="#00a784"></path><path d="M0 487L82 505L164 511L245 469L327 535L409 529L491 445L573 535L655 469L736 547L818 529L900 469L900 353L818 293L736 365L655 299L573 293L491 317L409 341L327 359L245 347L164 377L82 335L0 359Z" fill="#00957c"></path><path d="M0 601L82 601L164 601L245 601L327 601L409 601L491 601L573 601L655 601L736 601L818 601L900 601L900 467L818 527L736 545L655 467L573 533L491 443L409 527L327 533L245 467L164 509L82 503L0 485Z" fill="#038373"></path></svg>