<svg id="visual" viewBox="0 0 900 600" width="900" height="600" xmlns="http://www.w3.org/2000/svg" xmlns:xlink="http://www.w3.org/1999/xlink" version="1.1"><rect x="0" y="0" width="900" height="600" fill="#001220"></rect><path d="M0 350L21.5 362C43 374 86 398 128.8 405C171.7 412 214.3 402 257.2 394C300 386 343 380 385.8 376.5C428.7 373 471.3 372 514.2 370C557 368 600 365 642.8 375C685.7 385 728.3 408 771.2 407.5C814 407 857 383 878.5 371L900 359L900 601L878.5 601C857 601 814 601 771.2 601C728.3 601 685.7 601 642.8 601C600 601 557 601 514.2 601C471.3 601 428.7 601 385.8 601C343 601 300 601 257.2 601C214.3 601 171.7 601 128.8 601C86 601 43 601 21.5 601L0 601Z" fill="#fa7268"></path><path d="M0 456L21.5 447.3C43 438.7 86 421.3 128.8 412.8C171.7 404.3 214.3 404.7 257.2 413.8C300 423 343 441 385.8 440.2C428.7 439.3 471.3 419.7 514.2 419.8C557 420 600 440 642.8 445.3C685.7 450.7 728.3 441.3 771.2 444.3C814 447.3 857 462.7 878.5 470.3L900 478L900 601L878.5 601C857 601 814 601 771.2 601C728.3 601 685.7 601 642.8 601C600 601 557 601 514.2 601C471.3 601 428.7 601 385.8 601C343 601 300 601 257.2 601C214.3 601 171.7 601 128.8 601C86 601 43 601 21.5 601L0 601Z" fill="#ef5f67"></path><path d="M0 451L21.5 455C43 459 86 467 128.8 473.7C171.7 480.3 214.3 485.7 257.2 479.8C300 474 343 457 385.8 452.2C428.7 447.3 471.3 454.7 514.2 455C557 455.3 600 448.7 642.8 448C685.7 447.3 728.3 452.7 771.2 457C814 461.3 857 464.7 878.5 466.3L900 468L900 601L878.5 601C857 601 814 601 771.2 601C728.3 601 685.7 601 642.8 601C600 601 557 601 514.2 601C471.3 601 428.7 601 385.8 601C343 601 300 601 257.2 601C214.3 601 171.7 601 128.8 601C86 601 43 601 21.5 601L0 601Z" fill="#e34c67"></path><path d="M0 485L21.5 489.5C43 494 86 503 128.8 508.5C171.7 514 214.3 516 257.2 514.2C300 512.3 343 506.7 385.8 505.8C428.7 505 471.3 509 514.2 506.7C557 504.3 600 495.7 642.8 498.7C685.7 501.7 728.3 516.3 771.2 525.5C814 534.7 857 538.3 878.5 540.2L900 542L900 601L878.5 601C857 601 814 601 771.2 601C728.3 601 685.7 601 642.8 601C600 601 557 601 514.2 601C471.3 601 428.7 601 385.8 601C343 601 300 601 257.2 601C214.3 601 171.7 601 128.8 601C86 601 43 601 21.5 601L0 601Z" fill="#d53867"></path><path d="M0 546L21.5 548.3C43 550.7 86 555.3 128.8 558.8C171.7 562.3 214.3 564.7 257.2 558.8C300 553 343 539 385.8 537.5C428.7 536 471.3 547 514.2 547.7C557 548.3 600 538.7 642.8 533C685.7 527.3 728.3 525.7 771.2 527.8C814 530 857 536 878.5 539L900 542L900 601L878.5 601C857 601 814 601 771.2 601C728.3 601 685.7 601 642.8 601C600 601 557 601 514.2 601C471.3 601 428.7 601 385.8 601C343 601 300 601 257.2 601C214.3 601 171.7 601 128.8 601C86 601 43 601 21.5 601L0 601Z" fill="#c62368"></path></svg>