<svg id="visual" viewBox="0 0 900 600" width="900" height="600" xmlns="http://www.w3.org/2000/svg" xmlns:xlink="http://www.w3.org/1999/xlink" version="1.1"><rect width="900" height="600" fill="#d3de80"></rect><g><g transform="translate(741 226)"><path d="M70.6 -24.7C78 -0.2 61.2 30.4 36.3 48C11.5 65.5 -21.3 70 -43.2 55.1C-65.1 40.2 -76.1 6 -67.1 -20.8C-58.1 -47.5 -29 -66.7 1.3 -67.1C31.6 -67.5 63.2 -49.2 70.6 -24.7Z" stroke="#F7760E" fill="none" stroke-width="20"></path></g><g transform="translate(194 500)"><path d="M45.1 -15.3C50.7 2.7 42.3 24.7 26.7 35.8C11.1 46.9 -11.6 47.1 -26.1 36.5C-40.5 25.9 -46.6 4.4 -40.8 -13.8C-35.1 -32 -17.6 -46.9 1.1 -47.3C19.7 -47.6 39.4 -33.4 45.1 -15.3Z" stroke="#F7760E" fill="none" stroke-width="20"></path></g><g transform="translate(784 560)"><path d="M43.2 -14.1C48.7 2.7 40.7 23.9 25.9 34.2C11.2 44.6 -10.3 44.2 -24.1 34C-37.9 23.8 -44 3.8 -38.6 -12.9C-33.3 -29.5 -16.7 -42.7 1.1 -43.1C18.9 -43.4 37.8 -30.9 43.2 -14.1Z" stroke="#F7760E" fill="none" stroke-width="20"></path></g></g></svg>